<svg width="186" height="101" viewBox="0 0 186 101" fill="none" xmlns="http://www.w3.org/2000/svg">
<path d="M65.3 73.94C65.2974 74.8966 64.9162 75.8133 64.2398 76.4897C63.5633 77.1662 62.6466 77.5474 61.69 77.55H58.88C57.9234 77.5474 57.0067 77.1662 56.3303 76.4897C55.6538 75.8133 55.2727 74.8966 55.27 73.94V64H57.92V73.9C57.92 74.1652 58.0254 74.4196 58.2129 74.6071C58.4004 74.7946 58.6548 74.9 58.92 74.9H61.63C61.8952 74.9 62.1496 74.7946 62.3371 74.6071C62.5247 74.4196 62.63 74.1652 62.63 73.9V64H65.3V73.94Z" fill="#231F20"/>
<path d="M78.3099 73.94C78.3073 74.8966 77.9261 75.8133 77.2497 76.4897C76.5732 77.1662 75.6565 77.5474 74.6999 77.55H67.2799L68.0799 74.91H74.6399C74.9051 74.91 75.1595 74.8046 75.347 74.6171C75.5346 74.4296 75.6399 74.1752 75.6399 73.91V73.13C75.6399 72.8648 75.5346 72.6104 75.347 72.4229C75.1595 72.2354 74.9051 72.13 74.6399 72.13H70.8899C69.9333 72.1274 69.0166 71.7462 68.3402 71.0697C67.6637 70.3933 67.2825 69.4766 67.2799 68.52V67.64C67.2759 67.1634 67.3664 66.6908 67.546 66.2493C67.7257 65.8078 67.991 65.4063 68.3266 65.0679C68.6622 64.7295 69.0615 64.4609 69.5015 64.2776C69.9414 64.0943 70.4133 64 70.8899 64H77.2999L76.4999 66.67H70.9299C70.6647 66.67 70.4103 66.7754 70.2228 66.9629C70.0353 67.1504 69.9299 67.4048 69.9299 67.67V68.43C69.9299 68.6952 70.0353 68.9496 70.2228 69.1371C70.4103 69.3246 70.6647 69.43 70.9299 69.43H74.6999C75.6557 69.4353 76.5709 69.8173 77.2468 70.4931C77.9226 71.169 78.3047 72.0842 78.3099 73.04V73.94Z" fill="#231F20"/>
<path d="M89.2098 69.45V72.12H82.4298V73.9C82.4298 74.1652 82.5352 74.4196 82.7227 74.6071C82.9103 74.7946 83.1646 74.9 83.4298 74.9H89.1998V77.54H83.3999C82.4424 77.54 81.5242 77.1597 80.8472 76.4827C80.1702 75.8057 79.7899 74.8874 79.7899 73.93V67.63C79.7872 67.1542 79.8786 66.6827 80.0589 66.2424C80.2391 65.8021 80.5046 65.4017 80.8401 65.0644C81.1756 64.7271 81.5744 64.4594 82.0137 64.2767C82.453 64.094 82.9241 64 83.3999 64H89.2098L88.4099 66.67H83.4099C83.1446 66.67 82.8903 66.7754 82.7027 66.9629C82.5152 67.1504 82.4099 67.4048 82.4099 67.67V70.8L83.7599 69.45H89.2098Z" fill="#231F20"/>
<path d="M101.58 67.63V73.94C101.58 74.8923 101.204 75.806 100.533 76.4821C99.8627 77.1583 98.9522 77.5421 97.9999 77.55H91.1899V64H97.9999C98.9556 64.0079 99.8692 64.3945 100.54 65.075C101.211 65.7555 101.585 66.6743 101.58 67.63ZM98.9099 67.69C98.9099 67.4248 98.8046 67.1704 98.617 66.9829C98.4295 66.7954 98.1752 66.69 97.9099 66.69H93.8399V73.58L92.5399 74.91H97.9099C98.1752 74.91 98.4295 74.8046 98.617 74.6171C98.8046 74.4296 98.9099 74.1752 98.9099 73.91V67.69Z" fill="#231F20"/>
<path d="M114.59 73.06V73.94C114.59 74.894 114.212 75.8092 113.54 76.4856C112.867 77.162 111.954 77.5447 111 77.55H103.58V64H110C110.956 64.0026 111.873 64.3838 112.55 65.0603C113.226 65.7367 113.607 66.6534 113.61 67.61V68.05C113.602 68.7733 113.41 69.4825 113.05 70.11C113.523 70.4433 113.91 70.885 114.178 71.3981C114.446 71.9113 114.587 72.4811 114.59 73.06ZM111.92 73.12C111.92 72.8548 111.814 72.6004 111.627 72.4129C111.439 72.2254 111.185 72.12 110.92 72.12H108.07L107.27 69.45H110C110.265 69.45 110.519 69.3446 110.707 69.1571C110.894 68.9696 111 68.7152 111 68.45V67.69C111 67.4248 110.894 67.1704 110.707 66.9829C110.519 66.7954 110.265 66.69 110 66.69H106.23V74.91H110.94C111.205 74.91 111.459 74.8046 111.647 74.6171C111.834 74.4296 111.94 74.1752 111.94 73.91L111.92 73.12Z" fill="#231F20"/>
<path d="M126.8 67.63V73.94C126.8 74.8974 126.42 75.8156 125.743 76.4927C125.066 77.1697 124.147 77.55 123.19 77.55H119.78C118.823 77.5474 117.907 77.1662 117.23 76.4897C116.554 75.8133 116.173 74.8966 116.17 73.94V67.63C116.169 67.1546 116.261 66.6836 116.442 66.2439C116.622 65.8042 116.888 65.4044 117.223 65.0673C117.558 64.7303 117.957 64.4625 118.395 64.2794C118.834 64.0962 119.305 64.0013 119.78 64H123.19C123.666 64 124.137 64.094 124.576 64.2767C125.015 64.4594 125.414 64.7271 125.75 65.0644C126.085 65.4017 126.351 65.8021 126.531 66.2424C126.711 66.6827 126.803 67.1542 126.8 67.63ZM124.13 67.69C124.13 67.4248 124.025 67.1704 123.837 66.9829C123.65 66.7954 123.395 66.69 123.13 66.69H119.82C119.555 66.69 119.3 66.7954 119.113 66.9829C118.925 67.1704 118.82 67.4248 118.82 67.69V73.9C118.82 74.1652 118.925 74.4196 119.113 74.6071C119.3 74.7946 119.555 74.9 119.82 74.9H123.13C123.395 74.9 123.65 74.7946 123.837 74.6071C124.025 74.4196 124.13 74.1652 124.13 73.9V67.69Z" fill="#231F20"/>
<path d="M139.41 67.63V73.94C139.407 74.8966 139.026 75.8133 138.35 76.4897C137.673 77.1662 136.756 77.5474 135.8 77.55H132.39C131.432 77.55 130.514 77.1697 129.837 76.4927C129.16 75.8156 128.78 74.8974 128.78 73.94V67.63C128.777 67.1542 128.869 66.6827 129.049 66.2424C129.229 65.8021 129.495 65.4017 129.83 65.0644C130.166 64.7271 130.564 64.4594 131.004 64.2767C131.443 64.094 131.914 64 132.39 64H135.8C136.275 64.0013 136.746 64.0962 137.184 64.2794C137.623 64.4625 138.021 64.7303 138.357 65.0673C138.692 65.4044 138.957 65.8042 139.138 66.2439C139.319 66.6836 139.411 67.1546 139.41 67.63ZM136.74 67.69C136.74 67.4248 136.634 67.1704 136.447 66.9829C136.259 66.7954 136.005 66.69 135.74 66.69H132.43C132.165 66.69 131.91 66.7954 131.723 66.9829C131.535 67.1704 131.43 67.4248 131.43 67.69V73.9C131.43 74.1652 131.535 74.4196 131.723 74.6071C131.91 74.7946 132.165 74.9 132.43 74.9H135.74C136.005 74.9 136.259 74.7946 136.447 74.6071C136.634 74.4196 136.74 74.1652 136.74 73.9V67.69Z" fill="#231F20"/>
<path d="M144 64V77.55H141.35V64H144ZM147.32 70.78L152.44 77.53H149.11L144 70.8L149.15 64H152.48L147.32 70.78Z" fill="#231F20"/>
<path d="M161.74 77.55L159.39 73.48H157.05L157.85 70.82H160.72C160.985 70.82 161.239 70.7146 161.427 70.5271C161.615 70.3396 161.72 70.0852 161.72 69.82V67.69C161.72 67.4248 161.615 67.1704 161.427 66.9829C161.239 66.7954 160.985 66.69 160.72 66.69H156V77.55H153.36V64H160.78C161.726 64.0024 162.634 64.3754 163.309 65.0389C163.983 65.7024 164.372 66.6038 164.39 67.55V69.91C164.378 70.595 164.171 71.2625 163.794 71.8344C163.417 72.4064 162.885 72.8592 162.26 73.14L164.81 77.53L161.74 77.55Z" fill="#231F20"/>
<path d="M167.72 76.3199V77.5499H166.49V76.3199H167.72Z" fill="#231F20"/>
<path d="M173 76.32V77.55H170.38C169.934 77.55 169.507 77.373 169.192 77.0579C168.877 76.7429 168.7 76.3156 168.7 75.87V72.93C168.7 72.4844 168.877 72.0571 169.192 71.7421C169.507 71.427 169.934 71.25 170.38 71.25H173L172.63 72.49H170.39C170.267 72.4926 170.15 72.5433 170.064 72.6311C169.978 72.719 169.93 72.8371 169.93 72.96V75.85C169.93 75.9729 169.978 76.091 170.064 76.1789C170.15 76.2667 170.267 76.3174 170.39 76.32H173Z" fill="#231F20"/>
<path d="M178.68 72.93V75.87C178.68 76.3156 178.503 76.7429 178.188 77.0579C177.873 77.373 177.446 77.55 177 77.55H175.42C174.973 77.55 174.545 77.3733 174.229 77.0585C173.912 76.7438 173.733 76.3165 173.73 75.87V72.93C173.733 72.4835 173.912 72.0562 174.229 71.7414C174.545 71.4267 174.973 71.25 175.42 71.25H177C177.446 71.25 177.873 71.427 178.188 71.7421C178.503 72.0571 178.68 72.4844 178.68 72.93ZM177.44 72.93C177.441 72.8688 177.43 72.8079 177.408 72.7509C177.385 72.6939 177.352 72.642 177.309 72.5982C177.266 72.5545 177.215 72.5197 177.158 72.4959C177.102 72.4722 177.041 72.46 176.98 72.46H175.43C175.365 72.4648 175.302 72.4829 175.245 72.5131C175.188 72.5434 175.137 72.5852 175.097 72.6359C175.056 72.6867 175.027 72.7452 175.01 72.8078C174.994 72.8705 174.99 72.9359 175 73V75.89C175 76.0129 175.048 76.131 175.134 76.2189C175.22 76.3067 175.337 76.3574 175.46 76.36H177C177.061 76.36 177.122 76.3478 177.178 76.3241C177.235 76.3003 177.286 76.2655 177.329 76.2218C177.372 76.178 177.405 76.1261 177.428 76.0691C177.45 76.0121 177.461 75.9512 177.46 75.89L177.44 72.93Z" fill="#231F20"/>
<path d="M185.38 71.25V77.55H184.15V73.63L183 75.56H182L180.82 73.63V77.55H179.59V71.25H180.82L182.49 74L184.15 71.28L185.38 71.25Z" fill="#231F20"/>
<path d="M48.33 62C36.14 45.79 35.28 44.36 35.22 40C36.74 43.23 37.52 46.56 40.84 48.33C41.698 44.774 42.8315 41.2901 44.23 37.91C45.1 35.78 43.23 33.91 41.98 32.07C43.98 32.25 44.27 34.13 45.39 35.21C46.59 33.59 47.29 31.65 49.39 29.96C48.17 32.76 47.13 35.02 46.22 37.32C44.7928 40.9284 43.962 44.7448 43.76 48.62C43.7277 50.8708 44.465 53.0653 45.85 54.84C46.93 56.4 48.2 56.6 49.85 55.63C54.66 52.87 55.91 50 54.76 43.5C54.4994 42.269 54.4964 40.9974 54.7511 39.7652C55.0058 38.5329 55.5127 37.3668 56.24 36.34C55.3 39.77 56.33 42.96 57.1 46.22C57.59 48.34 56.89 50.47 55.97 52.86C63.22 48.74 67.84 43.36 68.59 35.18C69.0216 37.0204 69.0721 38.9298 68.7385 40.7905C68.4049 42.6513 67.6941 44.4241 66.65 46C64.8012 48.9026 62.407 51.4191 59.6 53.41C55.86 56.25 52.14 59.11 48.33 62Z" fill="#0B0B12"/>
<path d="M17.8298 38.8C20.2098 43.7 23.3198 47.8 29.1198 49.05C27.1198 41.05 26.9198 37.48 28.2598 33.54C28.0644 36.7316 28.4265 39.9328 29.3298 43C30.4944 47.1317 33.1721 50.6733 36.8298 52.92C40.8369 55.122 44.2324 58.2872 46.7098 62.13C48.0702 64.1173 48.77 66.4825 48.7098 68.89C48.6298 70.09 48.2498 70.29 47.1898 69.77C43.9998 68.24 41.3198 66.44 39.9998 62.86C39.153 60.5472 37.8232 58.4413 36.0989 56.6825C34.3746 54.9237 32.2955 53.5525 29.9998 52.66C26.5589 51.3493 23.4754 49.2457 20.9998 46.52C19.162 44.3415 18.0533 41.6415 17.8298 38.8Z" fill="#0B0B12"/>
<path d="M39.23 73.8199C41.3313 76.551 43.9773 78.8155 47 80.4699C49.9109 82.0477 52.9166 83.4437 56 84.6499C55.61 84.8099 55.29 84.9699 55.06 85.0899C55.06 85.0899 53.73 85.7999 53.79 86.2099C53.0195 86.1281 52.261 85.9569 51.53 85.6999C51.84 85.7899 50.88 85.5999 50.58 85.6999C50.3235 85.7924 50.0982 85.9553 49.93 86.1699C49.7 86.4599 49.76 86.6499 49.56 86.7699C49.36 86.8899 49.08 86.6699 48.9 86.7699C48.72 86.8699 48.81 87.7099 48.99 88.1499C49.17 88.5899 49.39 89.1499 49.74 89.1499C50.62 89.2399 51.83 85.8499 51.53 85.6799C51.44 85.6799 51.14 85.8799 50.35 86.9899C49.3145 86.9905 48.3022 87.2966 47.44 87.8699C45.31 89.3399 45.44 91.9799 44.13 92.1199C43.42 92.1999 43.13 91.3899 41.53 90.1199C40.4997 89.2652 39.3595 88.5522 38.14 87.9999C37.5214 88.1862 36.9323 88.4589 36.39 88.8099C35.874 89.1407 35.4063 89.5411 35 89.9999C35.2945 89.3374 35.3545 88.5944 35.1701 87.8932C34.9858 87.192 34.5681 86.5745 33.9858 86.1425C33.4036 85.7104 32.6916 85.4896 31.967 85.5164C31.2425 85.5433 30.5487 85.8161 30 86.2899C32.7 84.6599 35 83.2099 36.56 80.8899C38 78.7599 39.44 76.6599 39.23 73.8199Z" fill="#0B0B12"/>
<path d="M50 80.59C46.4627 79.1184 43.3362 76.8087 40.89 73.86C40.1449 72.9781 39.6108 71.9379 39.3283 70.8184C39.0459 69.699 39.0225 68.5298 39.26 67.4C39.36 66.9 39.51 66.33 40.02 66.14C40.53 65.95 40.73 66.57 41.02 66.87C42.71 68.93 45.02 70.1 47.19 71.58C49.82 73.42 49.92 74.02 48.83 77.21C48.4 78.28 49.46 79.22 50 80.59Z" fill="#0B0B12"/>
<path d="M48.4099 27.43C48.0299 26.75 47.7499 26.25 47.4599 25.75C47.1299 26.22 47.6499 27.06 47.0199 27.25C46.7399 27.33 46.1499 26.74 45.8599 26.34C44.3399 24.24 43.6699 21.98 44.6599 19.42C45.1799 18.08 45.7899 17.76 46.9899 18.88C49.5499 21.27 50.0499 23.57 48.4099 27.43Z" fill="#067D06"/>
<path d="M76.7899 18.5999C76.8699 21.0099 73.73 24.5999 71.23 24.7799C70.7223 24.7566 70.2447 24.533 69.9017 24.1581C69.5587 23.7832 69.3782 23.2876 69.3999 22.7799C69.4899 20.4999 73.2899 17.3599 75.4999 17.5099C76.1399 17.5699 76.9999 17.5399 76.7899 18.5999Z" fill="#067D06"/>
<path d="M77.31 28.36C77.2478 29.4346 76.9461 30.4817 76.4271 31.4247C75.908 32.3676 75.1846 33.1826 74.31 33.81C73.74 34.2 72.92 35.12 72.41 34.51C71.9 33.9 70.49 33.25 71.14 31.66C72.02 29.55 72.95 27.66 75.14 26.61C76.76 25.87 77.37 26.48 77.31 28.36Z" fill="#067D06"/>
<path d="M49.91 39.26C49.583 39.3005 49.2512 39.2495 48.9515 39.1127C48.6518 38.9758 48.3959 38.7584 48.2124 38.4848C48.0289 38.2111 47.925 37.8919 47.9122 37.5626C47.8994 37.2334 47.9783 36.9071 48.14 36.62C49.28 34 51.52 33 54.08 32.55C55 32.37 55.69 32.66 55.63 33.81C55.53 36 52.12 39.22 49.91 39.26Z" fill="#067D06"/>
<path d="M9.99986 29.35C12.6499 29.42 15.8999 31.96 16.5599 34.28C16.8199 35.23 15.4699 36.57 14.3999 36.41C11.8799 36 9.29986 33.13 8.99986 30.55C8.82986 29.37 9.38986 29.31 9.99986 29.35Z" fill="#067D06"/>
<path d="M52.46 50C52.01 50.14 52.46 51.9 51.17 50.68C50.75 50.3 50.81 50.75 50.81 50.95C50.81 51.88 50.46 51.55 50.05 51.22C48.43 49.93 47.63 46.22 48.54 44.32C49.22 42.9 50.22 43.69 50.7 44.23C51.4274 44.9849 51.966 45.9012 52.2719 46.9039C52.5777 47.9067 52.6422 48.9676 52.46 50Z" fill="#067D06"/>
<path d="M47.1699 12.12C46.8199 12.91 47.1699 13.68 46.5199 14.12C44.3199 12.12 44.7399 7.02005 47.2199 5.35005C47.3271 5.24523 47.4565 5.16588 47.5986 5.11786C47.7406 5.06983 47.8917 5.05437 48.0405 5.07261C48.1893 5.09086 48.3322 5.14234 48.4584 5.22326C48.5847 5.30417 48.6911 5.41244 48.7699 5.54005C50.7699 7.54005 50.0599 12.64 47.4599 14.25L47.1699 12.12Z" fill="#067D06"/>
<path d="M36.9999 30.23C37.4499 31.94 38.1799 33.64 37.2599 35.4C36.8499 36.18 36.9999 37.4 35.6999 37.52C34.0899 37.66 33.3999 36.81 33.0699 35.31C32.811 34.1188 32.8278 32.8842 33.119 31.7005C33.4102 30.5167 33.968 29.4152 34.7499 28.48C36.7399 27.47 36.3699 29.48 36.9999 30.23Z" fill="#067D06"/>
<path d="M10.9299 20.6C11.0799 19.8 10.6999 18.85 11.5399 18.5C12.3799 18.15 12.9599 18.66 13.5999 19.1C14.8942 20.0707 15.9255 21.3495 16.5999 22.82C17.6799 24.82 16.4199 25.73 15.2599 26.77C15.1199 26.9 14.5499 26.7 14.2599 26.5C13.307 25.8201 12.5149 24.9394 11.9395 23.9199C11.3642 22.9005 11.0195 21.7672 10.9299 20.6Z" fill="#067D06"/>
<path d="M20.2499 25.7899C22.7499 26.1499 24.8999 27.1299 26.0899 29.5399C26.2299 29.8399 27.7799 31.4199 25.4799 30.8299C25.4169 30.8311 25.3551 30.8471 25.2995 30.8766C25.2439 30.9062 25.1961 30.9484 25.1599 30.9999C24.6099 32.1399 24.0599 32.4499 22.9499 31.9999C21.1037 31.1868 19.6274 29.7141 18.8099 27.8699C17.9999 26.1399 18.5899 25.7099 20.2499 25.7899Z" fill="#067D06"/>
<path d="M60.3299 46.6L60.7399 44.88C60.1299 44.95 59.9699 45.88 59.3599 45.58C59.0399 42.05 60.2599 39.66 63.0099 38.23C64.1199 37.66 64.6999 37.64 64.9299 39.12C65.1794 40.7103 64.8531 42.3374 64.0098 43.7086C63.1666 45.0798 61.8617 46.105 60.3299 46.6Z" fill="#067D06"/>
<path d="M17.21 43.68L14.77 43L16.25 44.34C14.7192 44.772 13.082 44.6129 11.6631 43.8942C10.2443 43.1755 9.14734 41.9497 8.58998 40.46C7.99998 38.88 9.27998 39 9.99998 38.9C12.75 38.41 15.53 40.22 17.21 43.68Z" fill="#067D06"/>
<path d="M39.6899 8.71C38.1399 5.77 37.5599 2.84 39.9199 0C40.6778 0.44236 41.3411 1.02973 41.872 1.72855C42.4028 2.42736 42.7908 3.22393 43.0136 4.07273C43.2365 4.92153 43.29 5.80593 43.1709 6.67539C43.0519 7.54486 42.7627 8.38234 42.3199 9.14C40.8699 9.14 41.3999 8.02 41.2399 7.29C41.2399 6.99 40.7699 7.44 41.0299 7.29C41.1199 7.23 41.1599 7.29 41.1899 7.44C41.2413 7.72695 41.2581 8.01904 41.2399 8.31C41.2399 8.8 41.4999 9.44 40.7999 9.61C40.0999 9.78 39.9999 9.12 39.6899 8.71Z" fill="#067D06"/>
<path d="M30.0599 26.17C29.9226 26.9595 29.5775 27.6981 29.0599 28.31C27.0599 26.09 27.9999 21.01 30.6999 19.64C30.8208 19.5626 30.9568 19.5122 31.0989 19.4921C31.2409 19.4721 31.3857 19.4828 31.5232 19.5236C31.6607 19.5644 31.7879 19.6343 31.896 19.7285C32.0042 19.8228 32.0908 19.9393 32.1499 20.07C33.3499 21.93 32.9399 26.49 31.3499 28.07C31.1599 28.25 30.7499 28.45 30.5899 28.36C29.7699 27.89 30.4699 27 30.0599 26.17Z" fill="#067D06"/>
<path d="M64.27 28.31C66.09 28.15 66.51 28.7201 65.79 30.3601C64.62 33.0601 62.43 34.23 59.74 34.71C58.74 34.88 57.88 33.0401 58.52 31.9401C59.82 29.7101 61.59 28.14 64.27 28.31Z" fill="#067D06"/>
<path d="M56 10.28L55.68 8.59003C55.19 8.89003 55.42 9.68003 54.68 9.77003C54.58 9.69003 54.42 9.64003 54.38 9.53003C53.8945 8.36317 53.7018 7.09527 53.8186 5.83684C53.9353 4.57842 54.3581 3.36764 55.05 2.31003C55.2181 1.97774 55.4715 1.69612 55.7843 1.49404C56.0971 1.29196 56.458 1.17668 56.83 1.16003C57.1893 1.24596 57.5178 1.42974 57.7791 1.69098C58.0403 1.95222 58.2241 2.28071 58.31 2.64003C58.7493 3.99717 58.7634 5.45612 58.3506 6.82153C57.9378 8.18693 57.1176 9.39363 56 10.28Z" fill="#067D06"/>
<path d="M26.89 11.61C26.3916 10.8855 26.0509 10.0644 25.89 9.19996V11.63C23.21 10.15 22.36 4.89996 24.27 2.84996C24.91 2.15996 25.27 2.56996 25.72 2.94996C26.9564 3.98989 27.7611 5.45298 27.9774 7.054C28.1938 8.65502 27.8061 10.2792 26.89 11.61Z" fill="#067D06"/>
<path d="M53.3298 26.49C53.6997 25.0627 54.5108 23.7886 55.6475 22.8494C56.7841 21.9103 58.1884 21.354 59.6598 21.26C61.3398 21.18 61.5398 21.92 61.1498 23.26C60.5198 25.4 57.1498 28.26 54.1498 27.6C53.9298 26.84 54.9198 26.78 54.9698 26.13C54.3198 25.75 54.0898 26.88 53.3298 26.49Z" fill="#067D06"/>
<path d="M38.79 18.13C37.69 16.83 37.98 15.26 37.93 13.75C37.9642 13.6852 37.9942 13.6184 38.02 13.55C38.4 12.36 37.85 10.44 39.7 10.35C41.35 10.28 41.88 11.91 42.33 13.28C42.92 15.59 43.38 17.9 41.51 19.91C40.86 19.4 40.96 18.6 40.79 17.96C40.72 18.61 41.42 19.68 40.33 19.91C39.24 20.14 39.19 18.84 38.79 18.13Z" fill="#067D06"/>
<path d="M25.6298 24.4C25.0198 23.48 25.4498 22.4 24.6298 21.59L24.4598 23.88C21.4598 22.98 21.2398 17.53 22.9998 15.37C23.6398 14.58 24.0598 15.08 24.6198 15.56C26.9998 17.68 27.4798 21 25.6298 24.4Z" fill="#067D06"/>
<path d="M72.2499 41.54C71.5899 41.71 71.2499 41.82 70.8899 41.88C70.7473 41.8706 70.608 41.8332 70.4799 41.77C70.4799 41.63 70.3599 41.46 70.4099 41.37C71.0846 39.9981 72.1741 38.8734 73.5238 38.1554C74.8736 37.4375 76.4152 37.1627 77.9299 37.37C79.0899 37.53 79.2999 37.94 78.7899 38.96C78.1848 40.1095 77.3154 41.0987 76.2531 41.8463C75.1908 42.5939 73.9661 43.0784 72.6799 43.26C72.1999 43.35 71.5199 43.4 71.3299 42.84C71.2499 42.56 71.7999 42.12 72.2499 41.54Z" fill="#067D06"/>
<path d="M33.0699 15.89C32.3999 15.29 32.4899 14.42 32.0699 13.67C32.0699 14.13 32.0699 14.59 32.0699 15.06C32.0699 15.53 32.0699 15.88 31.5599 15.83C31.2875 15.7527 31.0527 15.5784 30.8999 15.34C30.1933 14.2063 29.7714 12.9184 29.6704 11.5862C29.5694 10.2541 29.7923 8.91734 30.3199 7.69001C30.8399 6.77001 31.3999 6.32001 32.3199 7.21001C33.443 8.33916 34.1335 9.82717 34.2706 11.4139C34.4077 13.0005 33.9827 14.5849 33.0699 15.89Z" fill="#067D06"/>
<path d="M19.5598 19.12C18.6498 18.43 19.2798 17.07 18.3498 16.36C18.3498 17.17 18.2698 17.94 18.2298 18.77C15.7698 17.42 14.9998 12.07 16.8598 10.22C17.9198 9.16 18.4798 10.42 18.7498 10.81C20.4198 13.25 21.7698 15.76 19.5598 19.12Z" fill="#067D06"/>
<path d="M35.29 25.63C34.74 23.18 34.29 20.74 36.06 18.53C37.14 18 37.44 18.87 37.85 19.53C39.25 20.3 39.27 21.79 39.68 23.07L39.58 26.55C39.38 27.12 39.13 27.76 38.4 27.55C37.67 27.34 37.78 26.73 37.71 26.29C37.5 26.66 38.01 27.8 36.9 27.75C35.6 27.68 35.76 26.38 35.29 25.63Z" fill="#067D06"/>
<path d="M65.6 16.78C66.39 16.02 67.39 15.38 68.39 15.95C69.39 16.52 69.04 17.88 68.85 18.81C68.683 19.8013 68.3079 20.746 67.7494 21.582C67.191 22.4179 66.4619 23.1261 65.61 23.66C65.27 23.87 64.61 24.05 64.39 23.88C63.81 23.47 64.7 23.02 64.53 22.45C63.81 22.2 63.9 23.45 63.13 23.18C62.49 21.56 63.36 20.12 63.91 18.64C64.3013 17.8831 64.884 17.2418 65.6 16.78Z" fill="#067D06"/>
<path d="M62.0999 15.91L60.7499 16.63C60.1799 16.08 61.0599 15.37 60.5599 14.81C60.0399 15.15 60.1899 16.1 59.3599 16.15C58.8063 14.7457 58.7515 13.194 59.2047 11.7542C59.658 10.3144 60.5917 9.0739 61.8499 8.23998C62.9899 7.40998 63.7499 7.74998 63.9599 9.23998C64.0818 10.5719 64.0583 11.9131 63.8899 13.24C63.4199 14.21 63.3799 15.48 62.0999 15.91Z" fill="#067D06"/>
<path d="M23.06 43.34C22.1089 42.467 21.3952 41.3666 20.9859 40.1422C20.5766 38.9178 20.4851 37.6095 20.72 36.34C20.83 35.59 20.87 34.73 21.65 34.46C22.43 34.19 23.07 34.99 23.65 35.54C25.78 37.61 25.59 40.18 25.29 42.79C23.77 43.57 24.29 41.86 23.74 41.5C24 42.26 24.26 43.07 23.06 43.34Z" fill="#067D06"/>
<path d="M50.45 20.37C49.86 17.54 50.2 14.94 52.38 12.81C52.5813 12.5416 52.8504 12.3315 53.1597 12.2014C53.469 12.0714 53.8074 12.026 54.14 12.07C54.9 12.29 54.9 13.07 54.98 13.74C55.34 16.81 54.98 19.59 51.87 21.2C51.26 19.91 52.08 18.83 52.32 17.66C52.21 18.39 51.8 19.01 51.69 19.75C51.58 20.49 51.23 20.9 50.45 20.37Z" fill="#067D06"/>
<path d="M51.2998 89.79C56.1898 89.7 61.0498 90.16 65.9198 90.22C71.2198 90.28 76.3998 91.31 81.6098 92.1C82.3098 92.21 83.0498 92.55 82.8598 93.4C82.6698 94.25 81.8598 93.84 81.3298 93.81C73.5498 93.37 65.7598 92.87 57.9698 92.4C54.9698 92.21 51.9698 92.1 48.8998 91.9C48.49 91.8891 48.0832 91.9737 47.7117 92.1473C47.3403 92.3209 47.0144 92.5786 46.7598 92.9C43.2098 96.32 41.3498 96.24 38.2398 92.49C37.9725 92.1688 37.6228 91.9264 37.2281 91.789C36.8335 91.6516 36.4088 91.6243 35.9998 91.71C33.5898 91.87 7.10982 93.04 4.47982 93.71C4.1521 93.7921 3.81721 93.8424 3.47982 93.86C2.65982 93.94 2.47982 93.86 2.27982 93.72C2.16254 93.5958 2.09802 93.4309 2.09982 93.26C2.08319 93.0891 2.10226 92.9165 2.15582 92.7533C2.20938 92.5901 2.29626 92.4398 2.41096 92.3119C2.52566 92.1841 2.66568 92.0814 2.82213 92.0105C2.97858 91.9396 3.14806 91.902 3.31982 91.9C5.31982 91.68 7.36982 91.28 9.40982 91.15C15.1498 90.8 20.8998 90.56 26.6498 90.27C27.1999 90.2684 27.7379 90.1087 28.1998 89.81C19.9465 88.9703 11.6199 89.182 3.41982 90.44C3.72982 88.1 3.74982 88.26 5.82982 87.99C12.2052 87.1292 18.6509 86.9115 25.0698 87.34C26.9998 87.47 28.9198 88 31.0698 87.6C29.5898 86.23 27.8098 86.03 26.1298 85.75C19.9598 84.75 13.9598 84.85 11.1798 85.75C9.62982 86.25 7.88982 86.18 6.41982 86.87C6.22982 86.96 5.47982 87.33 5.06982 87.03C4.92568 86.9022 4.82151 86.7356 4.76982 86.55C4.54982 85.64 5.16982 84.93 6.28982 84.69C8.42982 84.24 10.5098 83.43 12.6598 83.1C23.3298 81.48 33.3198 82.82 41.7198 90.34C42.3898 90.95 42.6298 90.95 43.2698 90.34C50.5598 83.02 59.4898 81.44 69.3698 82.74C72.1398 83.1 74.8698 83.74 77.6598 83.98C78.2632 84.0382 78.8519 84.2006 79.3998 84.46C79.8859 84.6683 80.2739 85.0549 80.484 85.5402C80.6942 86.0256 80.7105 86.573 80.5298 87.07C80.1698 88.12 79.1998 87.44 78.5298 87.25C72.0213 85.4698 65.2302 84.9639 58.5298 85.76C56.6628 85.9356 54.8587 86.5267 53.2498 87.49C55.4898 87.27 57.7198 87 59.9598 86.83C66.3598 86.35 72.6398 87.45 78.8798 88.66C80.0898 88.89 81.6998 89.04 81.8798 91.17C76.6898 90.52 71.6298 89.38 66.4398 89.17C61.3857 88.8226 56.3086 89.0305 51.2998 89.79Z" fill="#425EAB"/>
<path d="M34.1299 93.31C35.7399 92.88 37.2999 93.38 38.7399 95.19C39.1457 95.707 39.658 96.1306 40.242 96.432C40.826 96.7334 41.468 96.9056 42.1245 96.937C42.7809 96.9683 43.4364 96.8579 44.0465 96.6134C44.6565 96.3689 45.2068 95.996 45.6599 95.52C48.4499 92.82 51.4899 93.29 54.6599 93.52C63.3266 94.0933 72.0199 94.6767 80.7399 95.27C81.6399 95.33 82.5499 95.43 83.4499 95.58C84.7799 95.79 85.8099 96.45 85.6699 97.94C85.5299 99.43 84.3799 100.09 82.9099 99.94C78.7599 99.54 74.6199 99.11 70.4799 98.68C64.1533 98.0133 57.8199 97.3467 51.4799 96.68C51.0772 96.6214 50.6665 96.6528 50.2774 96.7722C49.8883 96.8915 49.5305 97.0957 49.2299 97.37C43.9899 101.65 40.2799 101.55 35.4399 96.98C35.1554 96.6876 34.8026 96.4704 34.4134 96.3483C34.0241 96.2261 33.6105 96.2026 33.2099 96.28C23.2099 97.42 13.2099 98.55 3.20992 99.67C1.77992 99.8 0.169922 100.14 -7.77924e-05 98C-0.140078 96 1.21992 95.7 2.81992 95.59C13.0999 94.84 23.3699 94.09 34.1299 93.31Z" fill="#067D06"/>
</svg>
