<svg width="214" height="100" viewBox="0 0 214 100" fill="none" xmlns="http://www.w3.org/2000/svg">
<path d="M67.3641 73.2006C67.361 74.3348 66.909 75.4217 66.107 76.2237C65.305 77.0257 64.2181 77.4776 63.0839 77.4808H59.7523C58.6181 77.4776 57.5313 77.0257 56.7292 76.2237C55.9272 75.4217 55.4753 74.3348 55.4722 73.2006V61.4154H58.6141V73.1532C58.6141 73.4676 58.739 73.7692 58.9614 73.9916C59.1837 74.2139 59.4853 74.3388 59.7997 74.3388H63.0128C63.3273 74.3388 63.6288 74.2139 63.8512 73.9916C64.0735 73.7692 64.1984 73.4676 64.1984 73.1532V61.4154H67.3641V73.2006Z" fill="#231F20"/>
<path d="M82.585 73.2006C82.5819 74.3348 82.1299 75.4217 81.3279 76.2237C80.5259 77.0257 79.4391 77.4776 78.3049 77.4808H69.5075L70.456 74.3507H78.2337C78.5482 74.3507 78.8498 74.2258 79.0721 74.0034C79.2945 73.7811 79.4194 73.4795 79.4194 73.165V72.2402C79.4194 71.9258 79.2945 71.6242 79.0721 71.4019C78.8498 71.1795 78.5482 71.0546 78.2337 71.0546H73.7876C72.6534 71.0515 71.5666 70.5995 70.7646 69.7975C69.9626 68.9955 69.5106 67.9087 69.5075 66.7745V65.7311C69.5028 65.1661 69.61 64.6057 69.823 64.0823C70.036 63.5588 70.3505 63.0828 70.7484 62.6816C71.1464 62.2804 71.6198 61.9619 72.1414 61.7446C72.663 61.5273 73.2225 61.4154 73.7876 61.4154H81.3875L80.439 64.581H73.835C73.5206 64.581 73.219 64.706 72.9967 64.9283C72.7743 65.1507 72.6494 65.4522 72.6494 65.7667V66.6678C72.6494 66.9822 72.7743 67.2838 72.9967 67.5061C73.219 67.7285 73.5206 67.8534 73.835 67.8534H78.3049C79.4381 67.8596 80.5232 68.3126 81.3245 69.1139C82.1259 69.9152 82.5788 71.0003 82.585 72.1335V73.2006Z" fill="#231F20"/>
<path d="M95.8953 67.8771V71.0428H87.8567V73.1532C87.8567 73.4676 87.9816 73.7692 88.204 73.9916C88.4263 74.2139 88.7279 74.3388 89.0423 74.3388H95.8835V77.4689H89.0068C87.8716 77.4689 86.7829 77.018 85.9803 76.2153C85.1776 75.4126 84.7266 74.3239 84.7266 73.1888V65.7193C84.7235 65.1552 84.8319 64.5961 85.0456 64.074C85.2593 63.552 85.5741 63.0774 85.9718 62.6774C86.3696 62.2774 86.8425 61.96 87.3633 61.7435C87.8842 61.5269 88.4427 61.4154 89.0068 61.4154H95.8953L94.9468 64.581H89.0186C88.7042 64.581 88.4026 64.706 88.1803 64.9283C87.9579 65.1507 87.833 65.4522 87.833 65.7667V69.4777L89.4336 67.8771H95.8953Z" fill="#231F20"/>
<path d="M110.357 65.7193V73.2006C110.357 74.3296 109.911 75.413 109.116 76.2146C108.321 77.0163 107.241 77.4714 106.112 77.4808H98.0381V61.4154H106.112C107.245 61.4248 108.329 61.8831 109.124 62.6899C109.92 63.4967 110.363 64.5861 110.357 65.7193ZM107.191 65.7904C107.191 65.476 107.066 65.1744 106.844 64.952C106.622 64.7297 106.32 64.6048 106.006 64.6048H101.18V72.7738L99.6387 74.3507H106.006C106.32 74.3507 106.622 74.2258 106.844 74.0034C107.066 73.7811 107.191 73.4795 107.191 73.165V65.7904Z" fill="#231F20"/>
<path d="M125.553 72.1573V73.2006C125.553 74.3317 125.105 75.4168 124.307 76.2188C123.51 77.0208 122.427 77.4745 121.296 77.4808H112.499V61.4154H120.111C121.245 61.4185 122.332 61.8705 123.134 62.6725C123.936 63.4745 124.388 64.5613 124.391 65.6955V66.2172C124.382 67.0747 124.153 67.9157 123.727 68.6596C124.288 69.0548 124.746 69.5784 125.064 70.1869C125.382 70.7953 125.549 71.4709 125.553 72.1573ZM122.387 72.2284C122.387 71.9139 122.262 71.6124 122.04 71.39C121.817 71.1677 121.516 71.0428 121.201 71.0428H117.822L116.874 67.8771H120.111C120.425 67.8771 120.727 67.7522 120.949 67.5298C121.171 67.3075 121.296 67.0059 121.296 66.6915V65.7904C121.296 65.476 121.171 65.1744 120.949 64.952C120.727 64.7297 120.425 64.6048 120.111 64.6048H115.641V74.3507H121.225C121.539 74.3507 121.841 74.2258 122.063 74.0034C122.286 73.7811 122.411 73.4795 122.411 73.165L122.387 72.2284Z" fill="#231F20"/>
<path d="M140.3 65.7193V73.2006C140.3 74.3358 139.849 75.4244 139.046 76.2271C138.244 77.0298 137.155 77.4808 136.02 77.4808H131.977C130.843 77.4776 129.756 77.0257 128.954 76.2237C128.152 75.4217 127.7 74.3348 127.697 73.2006V65.7193C127.695 65.1556 127.805 64.5972 128.019 64.0759C128.233 63.5545 128.548 63.0805 128.946 62.6809C129.343 62.2812 129.815 61.9638 130.335 61.7466C130.855 61.5295 131.413 61.417 131.977 61.4154H136.02C136.584 61.4154 137.143 61.5269 137.663 61.7435C138.184 61.96 138.657 62.2774 139.055 62.6774C139.453 63.0774 139.767 63.552 139.981 64.074C140.195 64.5961 140.303 65.1552 140.3 65.7193ZM137.134 65.7904C137.134 65.476 137.01 65.1744 136.787 64.952C136.565 64.7297 136.263 64.6048 135.949 64.6048H132.024C131.71 64.6048 131.408 64.7297 131.186 64.952C130.964 65.1744 130.839 65.476 130.839 65.7904V73.1532C130.839 73.4676 130.964 73.7692 131.186 73.9916C131.408 74.2139 131.71 74.3388 132.024 74.3388H135.949C136.263 74.3388 136.565 74.2139 136.787 73.9916C137.01 73.7692 137.134 73.4676 137.134 73.1532V65.7904Z" fill="#231F20"/>
<path d="M155.046 65.7193V73.2006C155.042 74.3348 154.59 75.4217 153.788 76.2237C152.986 77.0257 151.9 77.4776 150.765 77.4808H146.722C145.587 77.4808 144.499 77.0298 143.696 76.2271C142.893 75.4244 142.442 74.3358 142.442 73.2006V65.7193C142.439 65.1552 142.547 64.5961 142.761 64.074C142.975 63.552 143.29 63.0774 143.687 62.6774C144.085 62.2774 144.558 61.96 145.079 61.7435C145.6 61.5269 146.158 61.4154 146.722 61.4154H150.765C151.329 61.417 151.887 61.5295 152.407 61.7466C152.927 61.9638 153.399 62.2812 153.797 62.6809C154.194 63.0805 154.509 63.5545 154.723 64.0759C154.938 64.5972 155.047 65.1556 155.046 65.7193ZM151.88 65.7904C151.88 65.476 151.755 65.1744 151.533 64.952C151.31 64.7297 151.009 64.6048 150.694 64.6048H146.77C146.455 64.6048 146.154 64.7297 145.931 64.952C145.709 65.1744 145.584 65.476 145.584 65.7904V73.1532C145.584 73.4676 145.709 73.7692 145.931 73.9916C146.154 74.2139 146.455 74.3388 146.77 74.3388H150.694C151.009 74.3388 151.31 74.2139 151.533 73.9916C151.755 73.7692 151.88 73.4676 151.88 73.1532V65.7904Z" fill="#231F20"/>
<path d="M160.33 61.4154V77.4808H157.188V61.4154H160.33ZM164.266 69.454L170.336 77.457H166.388L160.33 69.4777L166.436 61.4154H170.384L164.266 69.454Z" fill="#231F20"/>
<path d="M182.461 77.4808L179.675 72.6552H176.9L177.849 69.5014H181.251C181.566 69.5014 181.867 69.3765 182.09 69.1542C182.312 68.9318 182.437 68.6302 182.437 68.3158V65.7904C182.437 65.476 182.312 65.1744 182.09 64.952C181.867 64.7297 181.566 64.6048 181.251 64.6048H175.655V77.4808H172.525V61.4154H181.323C182.445 61.4183 183.521 61.8604 184.321 62.6472C185.121 63.4339 185.581 64.5026 185.603 65.6244V68.4225C185.589 69.2347 185.344 70.0261 184.896 70.7042C184.449 71.3823 183.818 71.9192 183.077 72.2521L186.101 77.457L182.461 77.4808Z" fill="#231F20"/>
<path d="M189.701 76.0231V77.4814H188.243V76.0231H189.701Z" fill="#231F20"/>
<path d="M196.942 76.0212V77.4795H193.835C193.307 77.4795 192.8 77.2696 192.427 76.8961C192.053 76.5226 191.844 76.0159 191.844 75.4876V72.0019C191.844 71.4736 192.053 70.967 192.427 70.5934C192.8 70.2199 193.307 70.01 193.835 70.01H196.942L196.503 71.4802H193.847C193.702 71.4833 193.563 71.5434 193.461 71.6475C193.359 71.7517 193.302 71.8917 193.302 72.0374V75.4639C193.302 75.6097 193.359 75.7497 193.461 75.8538C193.563 75.958 193.702 76.0181 193.847 76.0212H196.942Z" fill="#231F20"/>
<path d="M204.956 72.0019V75.4876C204.956 76.0159 204.746 76.5226 204.373 76.8961C203.999 77.2696 203.492 77.4795 202.964 77.4795H201.091C200.562 77.4795 200.054 77.27 199.678 76.8968C199.303 76.5236 199.09 76.017 199.087 75.4876V72.0019C199.09 71.4725 199.303 70.9659 199.678 70.5927C200.054 70.2195 200.562 70.01 201.091 70.01H202.964C203.492 70.01 203.999 70.2199 204.373 70.5934C204.746 70.967 204.956 71.4736 204.956 72.0019ZM203.486 72.0019C203.487 71.9293 203.475 71.8571 203.448 71.7895C203.421 71.722 203.381 71.6604 203.33 71.6085C203.28 71.5566 203.219 71.5154 203.152 71.4872C203.085 71.4591 203.013 71.4446 202.94 71.4446H201.103C201.026 71.4503 200.951 71.4717 200.883 71.5076C200.815 71.5435 200.756 71.5931 200.708 71.6532C200.66 71.7134 200.625 71.7828 200.605 71.857C200.585 71.9313 200.581 72.0089 200.593 72.0849V75.5114C200.593 75.6571 200.65 75.7971 200.752 75.9013C200.854 76.0054 200.993 76.0655 201.138 76.0686H202.964C203.037 76.0686 203.109 76.0541 203.176 76.026C203.243 75.9978 203.303 75.9566 203.354 75.9047C203.405 75.8528 203.445 75.7913 203.472 75.7237C203.498 75.6562 203.511 75.584 203.51 75.5114L203.486 72.0019Z" fill="#231F20"/>
<path d="M213.963 70.01V77.4795H212.505V72.8318L211.141 75.1201H209.956L208.556 72.8318V77.4795H207.098V70.01H208.556L210.536 73.2705L212.505 70.0456L213.963 70.01Z" fill="#231F20"/>
<path d="M48.1012 61.694C35.9714 45.5641 35.1156 44.1411 35.0559 39.8027C36.5684 43.0167 37.3445 46.3303 40.6482 48.0915C41.502 44.5531 42.6298 41.0865 44.0214 37.723C44.8871 35.6035 43.0263 33.7427 41.7825 31.9118C43.7726 32.0909 44.0612 33.9617 45.1757 35.0363C46.3698 33.4243 47.0663 31.4939 49.1559 29.8123C47.942 32.5984 46.9071 34.8473 46.0016 37.1359C44.5815 40.7265 43.7547 44.5241 43.5537 48.3801C43.5216 50.6199 44.2553 52.8035 45.6334 54.5694C46.7081 56.1217 47.9718 56.3207 49.6137 55.3555C54.3999 52.6091 55.6437 49.7533 54.4994 43.2854C54.2401 42.0605 54.2371 40.7952 54.4905 39.569C54.744 38.3429 55.2484 37.1825 55.9721 36.1607C55.0367 39.5738 56.0617 42.7481 56.8278 45.992C57.3154 48.1015 56.6189 50.221 55.7034 52.5992C62.9176 48.4995 67.5148 43.1461 68.2611 35.0065C68.6906 36.8379 68.7409 38.7378 68.4089 40.5893C68.0769 42.4409 67.3697 44.2049 66.3307 45.773C64.4911 48.6613 62.1087 51.1654 59.3155 53.1464C55.594 55.9724 51.8923 58.8183 48.1012 61.694Z" fill="#0B0B12"/>
<path d="M17.7517 38.6085C20.12 43.4843 23.2146 47.5641 28.986 48.8079C26.9958 40.8474 26.7968 37.2951 28.1302 33.3745C27.9358 36.5503 28.296 39.7357 29.1949 42.7878C30.3538 46.899 33.0182 50.4232 36.6579 52.6588C40.6451 54.8499 44.0239 57.9995 46.4891 61.8233C47.8428 63.8007 48.5391 66.1543 48.4792 68.5499C48.3996 69.744 48.0215 69.943 46.9667 69.4256C43.7925 67.9031 41.1257 66.112 39.8122 62.5497C38.9696 60.2483 37.6463 58.1528 35.9306 56.4027C34.2148 54.6526 32.1459 53.2881 29.8616 52.4001C26.4376 51.0958 23.3694 49.0027 20.9061 46.2904C19.0773 44.1226 17.9741 41.436 17.7517 38.6085Z" fill="#0B0B12"/>
<path d="M39.0462 73.4553C41.1372 76.1729 43.7701 78.4262 46.7779 80.0725C49.6743 81.6424 52.6653 83.0315 55.7334 84.2318C55.3453 84.391 55.0269 84.5503 54.7981 84.6697C54.7981 84.6697 53.4746 85.3762 53.5343 85.7841C52.7676 85.7027 52.0129 85.5324 51.2855 85.2766C51.594 85.3662 50.6387 85.1771 50.3402 85.2766C50.0849 85.3686 49.8607 85.5307 49.6934 85.7443C49.4645 86.0329 49.5242 86.222 49.3252 86.3414C49.1262 86.4608 48.8476 86.2419 48.6685 86.3414C48.4894 86.4409 48.5789 87.2767 48.758 87.7146C48.9371 88.1524 49.1561 88.7096 49.5043 88.7096C50.38 88.7992 51.584 85.4259 51.2855 85.2568C51.1959 85.2568 50.8974 85.4558 50.1113 86.5603C49.081 86.5608 48.0737 86.8654 47.2157 87.4359C45.0962 88.8987 45.2256 91.5256 43.922 91.6649C43.2155 91.7446 42.927 90.9386 41.3349 89.6748C40.3096 88.8243 39.1751 88.1148 37.9616 87.5653C37.3461 87.7506 36.7599 88.022 36.2203 88.3713C35.7069 88.7004 35.2414 89.0989 34.8371 89.5554C35.1302 88.8962 35.1899 88.1568 35.0064 87.459C34.823 86.7613 34.4073 86.1469 33.828 85.717C33.2486 85.2871 32.5401 85.0674 31.8191 85.0941C31.0982 85.1207 30.4078 85.3922 29.8618 85.8637C32.5485 84.2418 34.8371 82.7989 36.3894 80.4904C37.8223 78.3709 39.2552 76.2813 39.0462 73.4553Z" fill="#0B0B12"/>
<path d="M49.7631 80.1921C46.2432 78.7277 43.1322 76.4294 40.6981 73.4953C39.9566 72.6178 39.4251 71.5826 39.1441 70.4687C38.863 69.3548 38.8398 68.1915 39.0761 67.0672C39.1756 66.5697 39.3249 66.0025 39.8324 65.8134C40.3398 65.6244 40.5388 66.2413 40.8274 66.5398C42.5091 68.5896 44.8077 69.7539 46.9669 71.2266C49.584 73.0575 49.6835 73.6545 48.5988 76.8287C48.171 77.8935 49.2257 78.8288 49.7631 80.1921Z" fill="#0B0B12"/>
<path d="M48.1808 27.2944C47.8027 26.6178 47.5241 26.1203 47.2355 25.6227C46.9072 26.0904 47.4246 26.9263 46.7977 27.1153C46.5191 27.1949 45.932 26.6079 45.6434 26.2098C44.1309 24.1202 43.4643 21.8714 44.4494 19.324C44.9668 17.9906 45.5738 17.6722 46.7679 18.7867C49.3152 21.1649 49.8127 23.4535 48.1808 27.2944Z" fill="#067D06"/>
<path d="M76.4212 18.5082C76.5008 20.9063 73.3763 24.4786 70.8886 24.6577C70.3835 24.6345 69.9082 24.412 69.5669 24.0389C69.2256 23.6659 69.0461 23.1728 69.0677 22.6676C69.1572 20.3988 72.9385 17.2744 75.1375 17.4236C75.7744 17.4833 76.6301 17.4535 76.4212 18.5082Z" fill="#067D06"/>
<path d="M76.9381 28.2199C76.8762 29.2892 76.5761 30.3312 76.0596 31.2695C75.543 32.2078 74.8233 33.0188 73.9529 33.643C73.3857 34.0311 72.5698 34.9465 72.0623 34.3396C71.5548 33.7326 70.1518 33.0858 70.7986 31.5036C71.6742 29.4041 72.5996 27.5234 74.7788 26.4786C76.3908 25.7422 76.9978 26.3492 76.9381 28.2199Z" fill="#067D06"/>
<path d="M49.6733 39.0661C49.3479 39.1064 49.0177 39.0557 48.7195 38.9195C48.4213 38.7833 48.1667 38.567 47.9841 38.2947C47.8016 38.0224 47.6981 37.7047 47.6854 37.3771C47.6727 37.0495 47.7511 36.7248 47.912 36.4391C49.0464 33.8321 51.2753 32.837 53.8227 32.3892C54.7382 32.2101 55.4248 32.4987 55.365 33.643C55.2655 35.8222 51.8724 39.0263 49.6733 39.0661Z" fill="#067D06"/>
<path d="M9.96034 29.2052C12.5973 29.2748 15.8312 31.8023 16.4879 34.1108C16.7467 35.0561 15.4033 36.3895 14.3386 36.2303C11.8311 35.8223 9.2638 32.9665 8.96528 30.3993C8.79612 29.2251 9.35336 29.1654 9.96034 29.2052Z" fill="#067D06"/>
<path d="M52.2109 49.7529C51.7631 49.8922 52.2109 51.6435 50.9273 50.4295C50.5094 50.0514 50.5691 50.4992 50.5691 50.6982C50.5691 51.6236 50.2208 51.2952 49.8128 50.9669C48.2008 49.6832 47.4048 45.9916 48.3103 44.1009C48.9869 42.688 49.982 43.4741 50.4596 44.0114C51.1834 44.7626 51.7194 45.6743 52.0238 46.6721C52.3281 47.6699 52.3923 48.7256 52.2109 49.7529Z" fill="#067D06"/>
<path d="M46.9467 12.0601C46.5984 12.8462 46.9467 13.6124 46.2999 14.0502C44.1108 12.0601 44.5287 6.98525 46.9964 5.32349C47.1032 5.2192 47.2319 5.14023 47.3733 5.09245C47.5146 5.04466 47.6649 5.02928 47.813 5.04743C47.9611 5.06559 48.1033 5.11682 48.2289 5.19733C48.3545 5.27784 48.4604 5.38557 48.5388 5.51256C50.5289 7.50268 49.8224 12.5775 47.2353 14.1795L46.9467 12.0601Z" fill="#067D06"/>
<path d="M36.827 30.0809C37.2748 31.7825 38.0012 33.4741 37.0857 35.2254C36.6777 36.0016 36.827 37.2155 35.5334 37.3349C33.9314 37.4742 33.2448 36.6284 32.9164 35.1359C32.6588 33.9505 32.6755 32.722 32.9653 31.5441C33.255 30.3663 33.8101 29.2702 34.5881 28.3396C36.5683 27.3346 36.2001 29.3346 36.827 30.0809Z" fill="#067D06"/>
<path d="M10.8857 20.4984C11.035 19.7023 10.6569 18.757 11.4927 18.4087C12.3286 18.0605 12.9057 18.568 13.5426 19.0058C14.8305 19.9717 15.8566 21.2441 16.5277 22.7074C17.6024 24.6975 16.3486 25.603 15.1944 26.6379C15.055 26.7673 14.4879 26.5682 14.1993 26.3692C13.2511 25.6927 12.4629 24.8163 11.8904 23.8019C11.3178 22.7875 10.9749 21.6598 10.8857 20.4984Z" fill="#067D06"/>
<path d="M20.1597 25.6627C22.6473 26.0209 24.7867 26.9961 25.9708 29.3942C26.1101 29.6927 27.6525 31.2649 25.3638 30.6778C25.3012 30.679 25.2397 30.6949 25.1844 30.7243C25.1291 30.7537 25.0814 30.7957 25.0454 30.847C24.4981 31.9813 23.9509 32.2898 22.8463 31.842C21.0093 31.0329 19.5403 29.5675 18.7268 27.7324C17.9208 26.011 18.5079 25.5831 20.1597 25.6627Z" fill="#067D06"/>
<path d="M60.0422 46.3701L60.4502 44.6586C59.8432 44.7282 59.684 45.6536 59.077 45.3551C58.7586 41.8425 59.9725 39.4643 62.709 38.0414C63.8135 37.4742 64.3906 37.4543 64.6195 38.927C64.8677 40.5095 64.543 42.1285 63.7039 43.493C62.8648 44.8574 61.5664 45.8776 60.0422 46.3701Z" fill="#067D06"/>
<path d="M17.1352 43.4641L14.7072 42.7875L16.1799 44.1209C14.6567 44.5507 13.0276 44.3924 11.6157 43.6772C10.2038 42.9621 9.11235 41.7424 8.55774 40.26C7.97066 38.6878 9.24434 38.8072 9.96078 38.7077C12.6972 38.2202 15.4635 40.0212 17.1352 43.4641Z" fill="#067D06"/>
<path d="M39.504 8.66699C37.9616 5.7415 37.3845 2.82597 39.7328 0C40.487 0.440176 41.1471 1.02464 41.6753 1.72001C42.2035 2.41537 42.5896 3.20801 42.8113 4.05261C43.0331 4.89722 43.0863 5.77726 42.9678 6.64243C42.8494 7.5076 42.5616 8.34095 42.121 9.09486C40.6781 9.09486 41.2055 7.98039 41.0463 7.254C41.0463 6.95548 40.5786 7.40326 40.8374 7.254C40.9269 7.19429 40.9667 7.254 40.9966 7.40326C41.0478 7.68879 41.0645 7.97944 41.0463 8.26896C41.0463 8.75654 41.305 9.39338 40.6085 9.56254C39.9119 9.7317 39.8124 9.07496 39.504 8.66699Z" fill="#067D06"/>
<path d="M29.9213 26.0406C29.7847 26.8262 29.4412 27.5613 28.9262 28.1701C26.9361 25.961 27.8714 20.9061 30.5581 19.5429C30.6784 19.4659 30.8138 19.4158 30.9551 19.3958C31.0965 19.3758 31.2405 19.3865 31.3773 19.4271C31.5142 19.4676 31.6407 19.5372 31.7483 19.631C31.8559 19.7248 31.9421 19.8407 32.0009 19.9708C33.195 21.8216 32.787 26.359 31.2049 27.9312C31.0158 28.1104 30.6079 28.3094 30.4487 28.2198C29.6327 27.7521 30.3292 26.8665 29.9213 26.0406Z" fill="#067D06"/>
<path d="M63.9622 28.17C65.7732 28.0108 66.1911 28.578 65.4747 30.2099C64.3104 32.8966 62.1312 34.0608 59.4545 34.5384C58.4595 34.7076 57.6037 32.8767 58.2406 31.7821C59.5341 29.5631 61.2954 28.0009 63.9622 28.17Z" fill="#067D06"/>
<path d="M55.7337 10.2291L55.4153 8.54748C54.9277 8.846 55.1566 9.6321 54.4202 9.72166C54.3207 9.64205 54.1615 9.5923 54.1217 9.48284C53.6386 8.32173 53.4468 7.0601 53.563 5.80789C53.6792 4.55568 54.0999 3.35088 54.7884 2.2985C54.9557 1.96784 55.2078 1.68761 55.5191 1.48653C55.8303 1.28545 56.1894 1.17074 56.5596 1.15417C56.9172 1.23968 57.244 1.42254 57.504 1.68249C57.7639 1.94245 57.9468 2.26932 58.0323 2.62687C58.4694 3.9773 58.4835 5.42904 58.0727 6.78771C57.6619 8.14637 56.8458 9.34711 55.7337 10.2291Z" fill="#067D06"/>
<path d="M26.7672 11.5526C26.2713 10.8318 25.9323 10.0148 25.7722 9.15455V11.5725C23.1054 10.0999 22.2596 4.87579 24.1602 2.83591C24.797 2.14932 25.1552 2.55729 25.603 2.93542C26.8333 3.97022 27.6341 5.42608 27.8493 7.01919C28.0645 8.61231 27.6788 10.2285 26.7672 11.5526Z" fill="#067D06"/>
<path d="M53.0759 26.3593C53.4439 24.939 54.251 23.6712 55.3821 22.7367C56.5132 21.8022 57.9105 21.2487 59.3747 21.1551C61.0464 21.0755 61.2454 21.8119 60.8573 23.1453C60.2304 25.2747 56.8771 28.1206 53.8919 27.4638C53.673 26.7076 54.6581 26.6479 54.7078 26.0011C54.061 25.623 53.8322 26.7474 53.0759 26.3593Z" fill="#067D06"/>
<path d="M38.6081 18.0405C37.5135 16.7469 37.8021 15.1847 37.7523 13.6821C37.7863 13.6177 37.8162 13.5513 37.8419 13.4831C38.22 12.299 37.6727 10.3885 39.5136 10.2989C41.1554 10.2293 41.6828 11.8512 42.1306 13.2145C42.7177 15.513 43.1754 17.8116 41.3146 19.8117C40.6678 19.3042 40.7673 18.5082 40.5982 17.8713C40.5285 18.5181 41.2251 19.5828 40.1404 19.8117C39.0558 20.0406 39.0061 18.747 38.6081 18.0405Z" fill="#067D06"/>
<path d="M25.513 24.2793C24.906 23.3639 25.3338 22.2892 24.5179 21.4832L24.3487 23.7619C21.3636 22.8664 21.1446 17.4433 22.8959 15.2939C23.5328 14.5078 23.9507 15.0054 24.5079 15.483C26.8762 17.5925 27.3538 20.8961 25.513 24.2793Z" fill="#067D06"/>
<path d="M71.9029 41.3347C71.2461 41.5039 70.9078 41.6134 70.5496 41.6731C70.4077 41.6637 70.2691 41.6265 70.1416 41.5636C70.1416 41.4243 70.0222 41.2551 70.0719 41.1656C70.7433 39.8004 71.8274 38.6813 73.1705 37.9669C74.5136 37.2525 76.0476 36.979 77.5548 37.1853C78.7091 37.3445 78.918 37.7525 78.4106 38.7675C77.8085 39.9113 76.9433 40.8956 75.8863 41.6395C74.8292 42.3834 73.6106 42.8656 72.3307 43.0462C71.8531 43.1358 71.1765 43.1856 70.9874 42.6283C70.9078 42.3497 71.4551 41.9119 71.9029 41.3347Z" fill="#067D06"/>
<path d="M32.9165 15.8113C32.2498 15.2143 32.3394 14.3486 31.9215 13.6023C31.9215 14.06 31.9215 14.5177 31.9215 14.9854C31.9215 15.4531 31.9215 15.8014 31.414 15.7516C31.1429 15.6747 30.9093 15.5013 30.7572 15.264C30.0541 14.1359 29.6343 12.8543 29.5338 11.5288C29.4333 10.2033 29.6551 8.87308 30.1801 7.65181C30.6975 6.73635 31.2548 6.28857 32.1702 7.17418C33.2878 8.29776 33.9749 9.77842 34.1113 11.3573C34.2477 12.9361 33.8248 14.5127 32.9165 15.8113Z" fill="#067D06"/>
<path d="M19.4738 19.0257C18.5682 18.3391 19.1951 16.9858 18.2697 16.2793C18.2697 17.0853 18.1901 17.8515 18.1503 18.6774C15.7025 17.3341 14.9363 12.0105 16.7871 10.1696C17.8419 9.11485 18.3991 10.3686 18.6678 10.7567C20.3295 13.1846 21.6728 15.6823 19.4738 19.0257Z" fill="#067D06"/>
<path d="M35.1257 25.5035C34.5784 23.0656 34.1307 20.6376 35.8919 18.4385C36.9666 17.9112 37.2651 18.7769 37.6731 19.4336C39.0662 20.1998 39.0861 21.6824 39.494 22.9561L39.3945 26.4189C39.1955 26.9861 38.9468 27.623 38.2204 27.414C37.494 27.205 37.6034 26.598 37.5338 26.1602C37.3248 26.5284 37.8323 27.6628 36.7278 27.613C35.4342 27.5433 35.5934 26.2498 35.1257 25.5035Z" fill="#067D06"/>
<path d="M65.2857 16.697C66.0718 15.9408 67.0668 15.304 68.0619 15.8711C69.057 16.4383 68.7087 17.7916 68.5196 18.717C68.3534 19.7035 67.9802 20.6435 67.4245 21.4753C66.8688 22.3071 66.1433 23.0118 65.2956 23.5431C64.9573 23.752 64.3006 23.9311 64.0816 23.762C63.5045 23.354 64.3901 22.9062 64.221 22.339C63.5045 22.0903 63.5941 23.3341 62.8279 23.0654C62.191 21.4534 63.0567 20.0206 63.604 18.5479C63.9934 17.7947 64.5732 17.1566 65.2857 16.697Z" fill="#067D06"/>
<path d="M61.8028 15.8312L60.4595 16.5477C59.8923 16.0004 60.768 15.2939 60.2704 14.7367C59.753 15.075 59.9023 16.0203 59.0764 16.07C58.5255 14.6727 58.471 13.1287 58.922 11.696C59.373 10.2633 60.3021 9.0289 61.5541 8.1991C62.6884 7.3732 63.4447 7.71152 63.6536 9.19416C63.7749 10.5195 63.7516 11.8541 63.584 13.1744C63.1163 14.1396 63.0765 15.4033 61.8028 15.8312Z" fill="#067D06"/>
<path d="M22.956 43.126C22.0096 42.2573 21.2994 41.1623 20.8921 39.944C20.4849 38.7256 20.3938 37.4237 20.6275 36.1605C20.737 35.4142 20.7768 34.5585 21.5529 34.2898C22.3291 34.0211 22.9659 34.8172 23.5431 35.3645C25.6625 37.4243 25.4735 39.9816 25.175 42.5787C23.6625 43.3548 24.1799 41.6533 23.6326 41.295C23.8913 42.0513 24.15 42.8573 22.956 43.126Z" fill="#067D06"/>
<path d="M50.2109 20.2694C49.6239 17.4534 49.9622 14.8662 52.1314 12.7467C52.3317 12.4796 52.5995 12.2706 52.9073 12.1411C53.215 12.0117 53.5517 11.9666 53.8827 12.0104C54.639 12.2293 54.639 13.0054 54.7186 13.6721C55.0768 16.727 54.7186 19.4932 51.6239 21.0953C51.0169 19.8117 51.8329 18.737 52.0717 17.5728C51.9623 18.2992 51.5543 18.9161 51.4448 19.6524C51.3354 20.3888 50.9871 20.7968 50.2109 20.2694Z" fill="#067D06"/>
<path d="M51.0566 89.3465C55.9224 89.257 60.7584 89.7147 65.6044 89.7744C70.8782 89.8341 76.0326 90.859 81.2169 91.6451C81.9134 91.7546 82.6498 92.0929 82.4607 92.9387C82.2716 93.7845 81.4657 93.3765 80.9383 93.3467C73.1967 92.9089 65.4452 92.4113 57.6936 91.9437C54.7084 91.7546 51.7233 91.6451 48.6684 91.4461C48.2606 91.4352 47.8558 91.5195 47.4862 91.6922C47.1166 91.8649 46.7923 92.1214 46.539 92.4412C43.0065 95.8443 41.1557 95.7647 38.0611 92.0332C37.7951 91.7136 37.4471 91.4724 37.0544 91.3357C36.6617 91.1989 36.2391 91.1717 35.8321 91.2571C33.434 91.4163 7.08481 92.5805 4.4678 93.2472C4.1417 93.3289 3.80846 93.3789 3.47273 93.3964C2.65678 93.4761 2.47767 93.3965 2.27866 93.2571C2.16196 93.1335 2.09775 92.9694 2.09955 92.7994C2.083 92.6293 2.10197 92.4576 2.15527 92.2952C2.20856 92.1328 2.29502 91.9832 2.40915 91.856C2.52329 91.7288 2.66261 91.6266 2.81829 91.5561C2.97397 91.4855 3.14261 91.4481 3.31352 91.4461C5.30365 91.2272 7.34352 90.8292 9.37345 90.6998C15.0851 90.3516 20.8067 90.1127 26.5283 89.8242C27.0757 89.8226 27.611 89.6637 28.0707 89.3664C19.858 88.5309 11.5726 88.7416 3.41303 89.9933C3.7215 87.6649 3.7414 87.8241 5.81113 87.5554C12.155 86.6989 18.5689 86.4822 24.9561 86.9086C26.8766 87.038 28.7871 87.5654 30.9265 87.1674C29.4538 85.8041 27.6826 85.6051 26.0109 85.3265C19.8713 84.3314 13.901 84.4309 11.1347 85.3265C9.59236 85.824 7.86095 85.7544 6.39821 86.441C6.20915 86.5305 5.46286 86.8987 5.05488 86.6002C4.91145 86.473 4.80779 86.3072 4.75636 86.1226C4.53745 85.217 5.15439 84.5106 6.26886 84.2717C8.39829 83.824 10.468 83.018 12.6074 82.6896C23.2247 81.0776 33.1654 82.411 41.5239 89.8938C42.1906 90.5008 42.4294 90.5008 43.0662 89.8938C50.3202 82.61 59.2061 81.0378 69.0373 82.3314C71.7937 82.6896 74.5102 83.3264 77.2864 83.5652C77.8868 83.6231 78.4726 83.7847 79.0178 84.0429C79.5015 84.2502 79.8876 84.6348 80.0967 85.1177C80.3058 85.6007 80.3221 86.1454 80.1422 86.64C79.784 87.6848 78.8188 87.0082 78.1521 86.8191C71.6758 85.0477 64.9182 84.5442 58.2509 85.3365C56.3931 85.5112 54.5979 86.0994 52.9969 87.0579C55.2259 86.839 57.4449 86.5703 59.6738 86.4012C66.0422 85.9235 72.2912 87.0181 78.5004 88.2221C79.7044 88.451 81.3064 88.6003 81.4855 90.7197C76.3212 90.0729 71.2862 88.9386 66.1218 88.7296C61.0926 88.3839 56.0407 88.5908 51.0566 89.3465Z" fill="#425EAB"/>
<path d="M33.9713 92.8492C35.5734 92.4213 37.1257 92.9189 38.5586 94.7199C38.9623 95.2343 39.4721 95.6558 40.0532 95.9558C40.6343 96.2557 41.2732 96.4271 41.9264 96.4582C42.5796 96.4894 43.2319 96.3796 43.8389 96.1363C44.4459 95.893 44.9935 95.522 45.4444 95.0483C48.2206 92.3616 51.2456 92.8293 54.3999 93.0582C63.0238 93.6287 71.6742 94.2091 80.3511 94.7995C81.2467 94.8592 82.1522 94.9587 83.0478 95.108C84.3712 95.317 85.3961 95.9737 85.2568 97.4563C85.1175 98.939 83.9732 99.5957 82.5104 99.4465C78.3809 99.0484 74.2614 98.6206 70.1418 98.1927C63.8464 97.5293 57.5443 96.8659 51.2356 96.2026C50.8349 96.1442 50.4262 96.1755 50.039 96.2943C49.6519 96.413 49.2959 96.6162 48.9968 96.8892C43.7826 101.148 40.091 101.049 35.2749 96.5011C34.9918 96.2101 34.6407 95.994 34.2534 95.8724C33.866 95.7509 33.4545 95.7275 33.0559 95.8045C23.1053 96.9389 13.1546 98.0633 3.20403 99.1778C1.78109 99.3072 0.179043 99.6455 0.00988292 97.516C-0.129426 95.5259 1.22386 95.2274 2.81596 95.1179C13.0452 94.3716 23.2645 93.6254 33.9713 92.8492Z" fill="#067D06"/>
</svg>
