<svg xmlns="http://www.w3.org/2000/svg" viewBox="0 0 185.38 100.47"><defs><style>.cls-1{fill:#231f20;}.cls-2{fill:#0b0b12;}.cls-3{fill:#176533;}.cls-4{fill:#425eab;}</style></defs><g id="Layer_2" data-name="Layer 2"><g id="Layer_1-2" data-name="Layer 1"><path class="cls-1" d="M65.3,73.94a3.62,3.62,0,0,1-3.61,3.61H58.88a3.62,3.62,0,0,1-3.61-3.61V64h2.65V73.9a1,1,0,0,0,1,1h2.71a1,1,0,0,0,1-1V64H65.3Z"/><path class="cls-1" d="M78.31,73.94a3.62,3.62,0,0,1-3.61,3.61H67.28l.8-2.64h6.56a1,1,0,0,0,1-1v-.78a1,1,0,0,0-1-1H70.89a3.62,3.62,0,0,1-3.61-3.61v-.88A3.61,3.61,0,0,1,70.89,64H77.3l-.8,2.67H70.93a1,1,0,0,0-1,1v.76a1,1,0,0,0,1,1H74.7a3.63,3.63,0,0,1,3.61,3.61Z"/><path class="cls-1" d="M89.21,69.45v2.67H82.43V73.9a1,1,0,0,0,1,1h5.77v2.64H83.4a3.61,3.61,0,0,1-3.61-3.61V67.63A3.61,3.61,0,0,1,83.4,64h5.81l-.8,2.67h-5a1,1,0,0,0-1,1V70.8l1.35-1.35Z"/><path class="cls-1" d="M101.58,67.63v6.31A3.61,3.61,0,0,1,98,77.55H91.19V64H98A3.61,3.61,0,0,1,101.58,67.63Zm-2.67.06a1,1,0,0,0-1-1H93.84v6.89l-1.3,1.33h5.37a1,1,0,0,0,1-1Z"/><path class="cls-1" d="M114.59,73.06v.88A3.61,3.61,0,0,1,111,77.55h-7.42V64H110a3.62,3.62,0,0,1,3.61,3.61v.44a4.23,4.23,0,0,1-.56,2.06A3.63,3.63,0,0,1,114.59,73.06Zm-2.67.06a1,1,0,0,0-1-1h-2.85l-.8-2.67H110a1,1,0,0,0,1-1v-.76a1,1,0,0,0-1-1h-3.77v8.22h4.71a1,1,0,0,0,1-1Z"/><path class="cls-1" d="M126.8,67.63v6.31a3.61,3.61,0,0,1-3.61,3.61h-3.41a3.62,3.62,0,0,1-3.61-3.61V67.63A3.62,3.62,0,0,1,119.78,64h3.41A3.61,3.61,0,0,1,126.8,67.63Zm-2.67.06a1,1,0,0,0-1-1h-3.31a1,1,0,0,0-1,1V73.9a1,1,0,0,0,1,1h3.31a1,1,0,0,0,1-1Z"/><path class="cls-1" d="M139.41,67.63v6.31a3.62,3.62,0,0,1-3.61,3.61h-3.41a3.61,3.61,0,0,1-3.61-3.61V67.63A3.61,3.61,0,0,1,132.39,64h3.41A3.62,3.62,0,0,1,139.41,67.63Zm-2.67.06a1,1,0,0,0-1-1h-3.31a1,1,0,0,0-1,1V73.9a1,1,0,0,0,1,1h3.31a1,1,0,0,0,1-1Z"/><path class="cls-1" d="M144,64V77.55h-2.65V64Zm3.32,6.78,5.12,6.75h-3.33L144,70.8,149.15,64h3.33Z"/><path class="cls-1" d="M161.74,77.55l-2.35-4.07h-2.34l.8-2.66h2.87a1,1,0,0,0,1-1V67.69a1,1,0,0,0-1-1H156V77.55h-2.64V64h7.42a3.62,3.62,0,0,1,3.61,3.55v2.36a3.61,3.61,0,0,1-2.13,3.23l2.55,4.39Zm2.65-9.92v0Zm0,2.3v0Z"/><path class="cls-1" d="M167.72,76.32v1.23h-1.23V76.32Z"/><path class="cls-1" d="M173,76.32v1.23h-2.62a1.68,1.68,0,0,1-1.68-1.68V72.93a1.68,1.68,0,0,1,1.68-1.68H173l-.37,1.24h-2.24a.47.47,0,0,0-.46.47v2.89a.47.47,0,0,0,.46.47Z"/><path class="cls-1" d="M178.68,72.93v2.94A1.68,1.68,0,0,1,177,77.55h-1.58a1.69,1.69,0,0,1-1.69-1.68V72.93a1.69,1.69,0,0,1,1.69-1.68H177A1.68,1.68,0,0,1,178.68,72.93Zm-1.24,0a.46.46,0,0,0-.46-.47h-1.55A.47.47,0,0,0,175,73v2.89a.47.47,0,0,0,.46.47H177a.46.46,0,0,0,.46-.47Z"/><path class="cls-1" d="M185.38,71.25v6.3h-1.23V73.63L183,75.56H182l-1.18-1.93v3.92h-1.23v-6.3h1.23L182.49,74l1.66-2.72Z"/><path class="cls-2" d="M48.33,62C36.14,45.79,35.28,44.36,35.22,40c1.52,3.23,2.3,6.56,5.62,8.33a70.53,70.53,0,0,1,3.39-10.42c.87-2.13-1-4-2.25-5.84,2,.18,2.29,2.06,3.41,3.14,1.2-1.62,1.9-3.56,4-5.25-1.22,2.8-2.26,5.06-3.17,7.36a35.79,35.79,0,0,0-2.46,11.3,9.88,9.88,0,0,0,2.09,6.22c1.08,1.56,2.35,1.76,4,.79,4.81-2.76,6.06-5.63,4.91-12.13a9.12,9.12,0,0,1,1.48-7.16c-.94,3.43.09,6.62.86,9.88.49,2.12-.21,4.25-1.13,6.64,7.25-4.12,11.87-9.5,12.62-17.68A13.86,13.86,0,0,1,66.65,46a26.61,26.61,0,0,1-7.05,7.41C55.86,56.25,52.14,59.11,48.33,62Z"/><path class="cls-2" d="M17.83,38.8c2.38,4.9,5.49,9,11.29,10.25-2-8-2.2-11.57-.86-15.51A27.53,27.53,0,0,0,29.33,43a17.08,17.08,0,0,0,7.5,9.92,27.53,27.53,0,0,1,9.88,9.21,11.46,11.46,0,0,1,2,6.76c-.08,1.2-.46,1.4-1.52.88C44,68.24,41.32,66.44,40,62.86A17.34,17.34,0,0,0,30,52.66,23.42,23.42,0,0,1,21,46.52,13.63,13.63,0,0,1,17.83,38.8Z"/><path class="cls-2" d="M39.23,73.82A24.87,24.87,0,0,0,47,80.47,80.22,80.22,0,0,0,56,84.65c-.39.16-.71.32-.94.44,0,0-1.33.71-1.27,1.12h0a10,10,0,0,1-2.26-.51h0c.31.09-.65-.1-.95,0a1.45,1.45,0,0,0-.65.47c-.23.29-.17.48-.37.6s-.48-.1-.66,0-.09.94.09,1.38.4,1,.75,1c.88.09,2.09-3.3,1.79-3.47-.09,0-.39.2-1.18,1.31a5.26,5.26,0,0,0-2.91.88c-2.13,1.47-2,4.11-3.31,4.25-.71.08-1-.73-2.6-2A15,15,0,0,0,38.14,88a6.86,6.86,0,0,0-1.75.81A6.65,6.65,0,0,0,35,90,3.19,3.19,0,0,0,30,86.29c2.7-1.63,5-3.08,6.56-5.4C38,78.76,39.44,76.66,39.23,73.82Z"/><path class="cls-2" d="M50,80.59a23.63,23.63,0,0,1-9.11-6.73,7.59,7.59,0,0,1-1.63-6.46c.1-.5.25-1.07.76-1.26s.71.43,1,.73c1.69,2.06,4,3.23,6.17,4.71,2.63,1.84,2.73,2.44,1.64,5.63C48.4,78.28,49.46,79.22,50,80.59Z"/><path class="cls-3" d="M48.41,27.43c-.38-.68-.66-1.18-.95-1.68-.33.47.19,1.31-.44,1.5-.28.08-.87-.51-1.16-.91-1.52-2.1-2.19-4.36-1.2-6.92.52-1.34,1.13-1.66,2.33-.54C49.55,21.27,50.05,23.57,48.41,27.43Z"/><path class="cls-3" d="M76.79,18.6c.08,2.41-3.06,6-5.56,6.18a1.92,1.92,0,0,1-1.83-2c.09-2.28,3.89-5.42,6.1-5.27C76.14,17.57,77,17.54,76.79,18.6Z"/><path class="cls-3" d="M77.31,28.36a7.22,7.22,0,0,1-3,5.45c-.57.39-1.39,1.31-1.9.7s-1.92-1.26-1.27-2.85c.88-2.11,1.81-4,4-5.05C76.76,25.87,77.37,26.48,77.31,28.36Z"/><path class="cls-3" d="M49.91,39.26a1.78,1.78,0,0,1-1.77-2.64C49.28,34,51.52,33,54.08,32.55c.92-.18,1.61.11,1.55,1.26C55.53,36,52.12,39.22,49.91,39.26Z"/><path class="cls-3" d="M10,29.35c2.65.07,5.9,2.61,6.56,4.93.26.95-1.09,2.29-2.16,2.13C11.88,36,9.3,33.13,9,30.55,8.83,29.37,9.39,29.31,10,29.35Z"/><path class="cls-3" d="M52.46,50c-.45.14,0,1.9-1.29.68-.42-.38-.36.07-.36.27,0,.93-.35.6-.76.27-1.62-1.29-2.42-5-1.51-6.9.68-1.42,1.68-.63,2.16-.09A6.65,6.65,0,0,1,52.46,50Z"/><path class="cls-3" d="M47.17,12.12c-.35.79,0,1.56-.65,2-2.2-2-1.78-7.1.7-8.77a1,1,0,0,1,1.55.19c2,2,1.29,7.1-1.31,8.71Z"/><path class="cls-3" d="M37,30.23c.45,1.71,1.18,3.41.26,5.17-.41.78-.26,2-1.56,2.12-1.61.14-2.3-.71-2.63-2.21a8,8,0,0,1,1.68-6.83C36.74,27.47,36.37,29.48,37,30.23Z"/><path class="cls-3" d="M10.93,20.6c.15-.8-.23-1.75.61-2.1s1.42.16,2.06.6a9.71,9.71,0,0,1,3,3.72c1.08,2-.18,2.91-1.34,3.95-.14.13-.71-.07-1-.27A8,8,0,0,1,10.93,20.6Z"/><path class="cls-3" d="M20.25,25.79c2.5.36,4.65,1.34,5.84,3.75.14.3,1.69,1.88-.61,1.29a.4.4,0,0,0-.32.17c-.55,1.14-1.1,1.45-2.21,1a8.1,8.1,0,0,1-4.14-4.13C18,26.14,18.59,25.71,20.25,25.79Z"/><path class="cls-3" d="M60.33,46.6l.41-1.72c-.61.07-.77,1-1.38.7-.32-3.53.9-5.92,3.65-7.35,1.11-.57,1.69-.59,1.92.89A6.76,6.76,0,0,1,60.33,46.6Z"/><path class="cls-3" d="M17.21,43.68,14.77,43l1.48,1.34a6.34,6.34,0,0,1-7.66-3.88C8,38.88,9.28,39,10,38.9,12.75,38.41,15.53,40.22,17.21,43.68Z"/><path class="cls-3" d="M39.69,8.71c-1.55-2.94-2.13-5.87.23-8.71a6.68,6.68,0,0,1,2.4,9.14c-1.45,0-.92-1.12-1.08-1.85,0-.3-.47.15-.21,0,.09-.06.13,0,.16.15a3.64,3.64,0,0,1,.05.87c0,.49.26,1.13-.44,1.3S40,9.12,39.69,8.71Z"/><path class="cls-3" d="M30.06,26.17a4.51,4.51,0,0,1-1,2.14c-2-2.22-1.06-7.3,1.64-8.67a1,1,0,0,1,1.45.43c1.2,1.86.79,6.42-.8,8-.19.18-.6.38-.76.29C29.77,27.89,30.47,27,30.06,26.17Z"/><path class="cls-3" d="M64.27,28.31c1.82-.16,2.24.41,1.52,2.05-1.17,2.7-3.36,3.87-6.05,4.35-1,.17-1.86-1.67-1.22-2.77C59.82,29.71,61.59,28.14,64.27,28.31Z"/><path class="cls-3" d="M56,10.28l-.32-1.69c-.49.3-.26,1.09-1,1.18-.1-.08-.26-.13-.3-.24a7.75,7.75,0,0,1,.67-7.22,2.1,2.1,0,0,1,1.78-1.15,2,2,0,0,1,1.48,1.48A7,7,0,0,1,56,10.28Z"/><path class="cls-3" d="M26.89,11.61a6.28,6.28,0,0,1-1-2.41v2.43c-2.68-1.48-3.53-6.73-1.62-8.78.64-.69,1-.28,1.45.1A6.5,6.5,0,0,1,26.89,11.61Z"/><path class="cls-3" d="M53.33,26.49a7,7,0,0,1,6.33-5.23c1.68-.08,1.88.66,1.49,2-.63,2.14-4,5-7,4.34-.22-.76.77-.82.82-1.47C54.32,25.75,54.09,26.88,53.33,26.49Z"/><path class="cls-3" d="M38.79,18.13c-1.1-1.3-.81-2.87-.86-4.38a1.76,1.76,0,0,0,.09-.2c.38-1.19-.17-3.11,1.68-3.2,1.65-.07,2.18,1.56,2.63,2.93.59,2.31,1.05,4.62-.82,6.63-.65-.51-.55-1.31-.72-1.95-.07.65.63,1.72-.46,1.95S39.19,18.84,38.79,18.13Z"/><path class="cls-3" d="M25.63,24.4c-.61-.92-.18-2-1-2.81l-.17,2.29c-3-.9-3.22-6.35-1.46-8.51.64-.79,1.06-.29,1.62.19C27,17.68,27.48,21,25.63,24.4Z"/><path class="cls-3" d="M72.25,41.54c-.66.17-1,.28-1.36.34a1.09,1.09,0,0,1-.41-.11c0-.14-.12-.31-.07-.4a7.28,7.28,0,0,1,7.52-4c1.16.16,1.37.57.86,1.59a8.2,8.2,0,0,1-6.11,4.3c-.48.09-1.16.14-1.35-.42C71.25,42.56,71.8,42.12,72.25,41.54Z"/><path class="cls-3" d="M33.07,15.89c-.67-.6-.58-1.47-1-2.22,0,.46,0,.92,0,1.39s0,.82-.51.77a1.16,1.16,0,0,1-.66-.49,8.28,8.28,0,0,1-.58-7.65c.52-.92,1.08-1.37,2-.48A6.79,6.79,0,0,1,33.07,15.89Z"/><path class="cls-3" d="M19.56,19.12c-.91-.69-.28-2.05-1.21-2.76,0,.81-.08,1.58-.12,2.41-2.46-1.35-3.23-6.7-1.37-8.55,1.06-1.06,1.62.2,1.89.59C20.42,13.25,21.77,15.76,19.56,19.12Z"/><path class="cls-3" d="M35.29,25.63c-.55-2.45-1-4.89.77-7.1,1.08-.53,1.38.34,1.79,1h0c1.4.77,1.42,2.26,1.83,3.54l-.1,3.48c-.2.57-.45,1.21-1.18,1s-.62-.82-.69-1.26c-.21.37.3,1.51-.81,1.46C35.6,27.68,35.76,26.38,35.29,25.63Z"/><path class="cls-3" d="M65.6,16.78c.79-.76,1.79-1.4,2.79-.83s.65,1.93.46,2.86a7.12,7.12,0,0,1-3.24,4.85c-.34.21-1,.39-1.22.22-.58-.41.31-.86.14-1.43-.72-.25-.63,1-1.4.73-.64-1.62.23-3.06.78-4.54A4.88,4.88,0,0,1,65.6,16.78Z"/><path class="cls-3" d="M62.1,15.91l-1.35.72c-.57-.55.31-1.26-.19-1.82-.52.34-.37,1.29-1.2,1.34a6.59,6.59,0,0,1,2.49-7.91c1.14-.83,1.9-.49,2.11,1a18.43,18.43,0,0,1-.07,4C63.42,14.21,63.38,15.48,62.1,15.91Z"/><path class="cls-3" d="M23.06,43.34a7.62,7.62,0,0,1-2.34-7c.11-.75.15-1.61.93-1.88s1.42.53,2,1.08c2.13,2.07,1.94,4.64,1.64,7.25-1.52.78-1-.93-1.55-1.29C24,42.26,24.26,43.07,23.06,43.34Z"/><path class="cls-3" d="M50.45,20.37c-.59-2.83-.25-5.43,1.93-7.56a1.89,1.89,0,0,1,1.76-.74c.76.22.76,1,.84,1.67.36,3.07,0,5.85-3.11,7.46-.61-1.29.21-2.37.45-3.54-.11.73-.52,1.35-.63,2.09S51.23,20.9,50.45,20.37Z"/><path class="cls-4" d="M51.3,89.79c4.89-.09,9.75.37,14.62.43,5.3.06,10.48,1.09,15.69,1.88.7.11,1.44.45,1.25,1.3s-1,.44-1.53.41c-7.78-.44-15.57-.94-23.36-1.41-3-.19-6-.3-9.07-.5a2.64,2.64,0,0,0-2.14,1c-3.55,3.42-5.41,3.34-8.52-.41A2.3,2.3,0,0,0,36,91.71c-2.41.16-28.89,1.33-31.52,2a5.24,5.24,0,0,1-1,.15c-.82.08-1,0-1.2-.14a.66.66,0,0,1-.18-.46,1.24,1.24,0,0,1,1.22-1.36c2-.22,4.05-.62,6.09-.75,5.74-.35,11.49-.59,17.24-.88a2.87,2.87,0,0,0,1.55-.46,98,98,0,0,0-24.78.63c.31-2.34.33-2.18,2.41-2.45a96,96,0,0,1,19.24-.65c1.93.13,3.85.66,6,.26-1.48-1.37-3.26-1.57-4.94-1.85-6.17-1-12.17-.9-14.95,0-1.55.5-3.29.43-4.76,1.12-.19.09-.94.46-1.35.16a1,1,0,0,1-.3-.48c-.22-.91.4-1.62,1.52-1.86,2.14-.45,4.22-1.26,6.37-1.59,10.67-1.62,20.66-.28,29.06,7.24.67.61.91.61,1.55,0,7.29-7.32,16.22-8.9,26.1-7.6,2.77.36,5.5,1,8.29,1.24a5.24,5.24,0,0,1,1.74.48,2.07,2.07,0,0,1,1.13,2.61c-.36,1.05-1.33.37-2,.18a52.38,52.38,0,0,0-20-1.49,12.57,12.57,0,0,0-5.28,1.73c2.24-.22,4.47-.49,6.71-.66,6.4-.48,12.68.62,18.92,1.83,1.21.23,2.82.38,3,2.51-5.19-.65-10.25-1.79-15.44-2A69.29,69.29,0,0,0,51.3,89.79Z"/><path class="cls-3" d="M34.13,93.31c1.61-.43,3.17.07,4.61,1.88a4.58,4.58,0,0,0,6.92.33c2.79-2.7,5.83-2.23,9-2q13,.86,26.08,1.75c.9.06,1.81.16,2.71.31,1.33.21,2.36.87,2.22,2.36s-1.29,2.15-2.76,2c-4.15-.4-8.29-.83-12.43-1.26q-9.49-1-19-2a2.75,2.75,0,0,0-2.25.69c-5.24,4.28-8.95,4.18-13.79-.39a2.46,2.46,0,0,0-2.23-.7q-15,1.71-30,3.39C1.78,99.8.17,100.14,0,98c-.14-2,1.22-2.3,2.82-2.41C13.1,94.84,23.37,94.09,34.13,93.31Z"/></g></g></svg>